# xmcd
# Copyright (C) 1995-1998 Ti Kan
#
# Track frame offsets:
#       150
#       21534
#       44748
#       59566
#       73532
#       102108
#       122304
#       145642
#       168918
#       191012
#       210877
#       229932
#
# Disc length: 3304 seconds
#
# Revision: 0
# Processed by: cddbd v1.5.2PL0 Copyright (c) Steve Scherf et al.
# Submitted via: CD-Transfer v1.0
#
DISCID=a60ce60c
DTITLE=Self Fulfilling Prophecy - Say A Word
DYEAR=12
DGENRE=
TTITLE0=When The Light Was Born
TTITLE1=Monkey Heat
TTITLE2=We See The Light So Easy
TTITLE3=Crashnian
TTITLE4=Say A Word
TTITLE5=More Than Just Goodbye
TTITLE6=Raven
TTITLE7=I Eat The Sun
TTITLE8=I'm Able To
TTITLE9=Summerson
TTITLE10=Byebye Baby
TTITLE11=To The End Of The World
EXTD=
EXTT0=
EXTT1=
EXTT2=
EXTT3=
EXTT4=
EXTT5=
EXTT6=
EXTT7=
EXTT8=
EXTT9=
EXTT10=
EXTT11=
PLAYORDER=
